<svg xmlns="http://www.w3.org/2000/svg" height="512" preserveAspectRatio="none" style="display: block;" version="1.1" viewBox="0 0 2048 2048" width="512">
<path d="M 1520.81 489.396 C 1583.66 486.425 1622.51 547.803 1627.14 604.006 C 1688.6 603.735 1797.08 617.987 1777.77 705.665 C 1765.85 759.766 1724.88 790.704 1681.12 819.538 C 1718.23 897.072 1682.41 932.171 1616.73 961.037 C 1644.58 1025.72 1584.92 1109.18 1515.69 1118.17 C 1473.23 1124.45 1441.33 1107.7 1408.39 1082.8 C 1387.68 1067.15 1359.89 1053.81 1339.33 1038 C 1292.43 1068.51 1229.83 1095.83 1180.13 1124.17 C 1186.7 1130.13 1201.49 1139.33 1209.16 1144.38 L 1367.84 1249.29 C 1415.11 1280.73 1459.89 1300.73 1470.93 1362.09 C 1488.56 1460.02 1393.63 1538.33 1301.74 1499.34 C 1284.69 1492.11 1267.5 1478.56 1252.03 1468.03 L 1056.39 1336.61 C 1016.16 1310.19 974.299 1283.92 935.075 1256.32 C 922.565 1263.54 901.956 1273.27 888.372 1280.43 L 788.824 1333.31 C 735.433 1361.37 697.787 1376.29 655.824 1422.38 C 625.284 1455.92 611.085 1489.61 582.17 1524.06 C 512.096 1595.75 404.24 1531.96 416.433 1442.68 C 367.454 1437.41 301.44 1420.16 276.278 1374.21 C 240.519 1308.91 314.188 1257.21 363.417 1229.83 C 342.294 1147.83 374.152 1083.24 467.716 1094.08 C 491.205 1096.8 511.683 1104.7 535.969 1106.4 C 608.032 1111.45 724.369 1027.21 793.412 994.48 C 758.917 972.482 690.12 932.448 665.201 908.405 C 617.879 862.747 629.806 790.588 674.508 746.84 C 490.247 663.708 604.094 452.894 744.273 506.452 C 765.708 514.642 779.879 525.382 799.031 538.004 L 1077.96 722.741 C 1106.83 741.72 1144.27 769.301 1173.46 785.322 C 1206.48 772.172 1236.11 747.22 1271.01 738.245 C 1279.39 736.091 1293.18 734.357 1300.5 730.448 C 1344.31 707.024 1383.11 665.206 1408.71 622.483 C 1442.03 566.89 1442.79 498.348 1520.81 489.396 z M 481.464 1413.25 C 480.516 1417.09 479.292 1422.93 477.899 1426.43 C 474.459 1432.51 470.126 1437.42 465.547 1442.68 C 472.884 1500.35 514.313 1529.09 550.808 1478.41 C 633.687 1358.93 642.332 1351.31 767.76 1284.35 L 1306.04 994.449 C 1329.19 981.891 1357.55 969.099 1377.08 950.743 C 1448.49 883.619 1387.29 774.749 1302.45 785.322 C 1269.3 790.285 1239.2 811.248 1209.9 827.41 L 679.294 1115.5 C 605.056 1154.82 564.469 1171.26 475.808 1149.67 C 436.717 1143.33 401.152 1142.17 409.366 1197.5 C 414.496 1232.06 455.707 1255.16 397.328 1274.32 C 368.834 1281.88 347.707 1298.47 329.487 1321.41 C 294.248 1365.77 387.604 1389.63 416.527 1389.86 C 449.994 1390.35 468.65 1373.97 481.464 1413.25 z M 985.962 889.965 C 1002.11 880.545 1018.54 872.665 1034.6 863.482 C 1054.03 853.31 1105.02 828.059 1120.09 816.222 L 1120.74 815.721 C 1111.78 808.235 1099.03 800.445 1089 793.684 L 1042.66 762.055 L 859.871 641.832 C 816.768 613.42 741.103 549.221 692.717 551.009 C 622.765 565.213 611.005 646.163 667.748 682.999 L 891.096 828.462 C 920.279 847.571 959.531 869.425 985.962 889.965 z M 1374.68 746.84 C 1432.07 771.044 1452.96 822.065 1459.25 879.347 C 1511.75 873.604 1548.98 870.76 1589.58 914.038 C 1598.79 909.313 1607.8 906.959 1616.73 902.976 C 1695.38 863.516 1568.7 818.807 1648.08 777.014 C 1679.86 759.097 1724.32 727.064 1727.87 687.58 C 1711.28 655.628 1657.84 653.576 1627.11 659.418 C 1603.39 663.926 1578.36 686.303 1564.78 642.922 C 1566.49 633.633 1570.42 626.811 1573.43 618.169 C 1583.65 588.813 1553.66 539.423 1520.81 541.107 C 1508.84 545.099 1499.14 552.029 1494.62 563.838 C 1460.16 653.711 1434.79 681.076 1374.68 746.84 z M 1491.23 928.592 C 1477.57 929.92 1463.69 931.112 1450.12 932.981 C 1436.92 967.195 1421.77 985.685 1389.99 1005.4 C 1409.28 1019.23 1454.32 1053.8 1473.94 1062.21 C 1588.94 1097.41 1604.92 915.159 1491.23 928.592 z M 935.075 918.266 C 873.356 880.083 813.386 839.054 752.153 800.089 C 744.058 794.939 724.059 780.193 716.946 777.627 C 651.821 841.688 699.803 871.478 758.656 910.014 C 787.008 928.579 815.933 949.481 845.484 965.937 C 858.916 960.05 872.31 952.057 885.277 944.982 C 901.771 935.411 919.966 927.245 935.075 918.266 z M 1302.45 1437.98 C 1383.74 1498.86 1480.88 1386 1375.87 1316.78 L 1159.83 1174.48 C 1153.43 1170.31 1130.81 1153.53 1125.7 1152.95 C 1088.96 1173.86 1014.37 1206.29 985.962 1229.83 C 1003.12 1237.64 1019.96 1249.25 1035.76 1259.61 L 1302.45 1437.98 z" fill="rgb(1,1,1)" transform="translate(0,0)"></path>
<path d="M 979.77 1038 C 1007.39 1028.73 1024.13 1068.94 994.776 1085.48 C 973.824 1097.29 952.269 1107.72 931.139 1119.08 L 869.572 1152.17 C 860.176 1157.15 844.809 1165.83 835.279 1169.09 C 812.412 1174.72 786.637 1136.34 820.425 1118.04 L 941.431 1053.23 C 956.655 1045.14 962.597 1039.88 979.77 1038 z" fill="rgb(1,1,1)" transform="translate(0,0)"></path>
<path d="M 722.172 1169.09 C 753.622 1167.23 760.26 1203.66 740.899 1215.8 C 720.465 1228.62 693.649 1242.68 671.318 1251.56 C 640.72 1252.34 629.94 1215.68 652.369 1202.67 C 670.231 1192.32 702.592 1175.88 722.172 1169.09 z" fill="rgb(1,1,1)" transform="translate(0,0)"></path>
</svg>