<svg xmlns="http://www.w3.org/2000/svg" height="512" preserveAspectRatio="none" style="display: block;" version="1.1" viewBox="0 0 2048 2048" width="512">
<path d="M 1642.78 352.377 C 1743.35 336.308 1824.43 462.344 1754.91 552.073 C 1726.46 588.799 1659.12 623.89 1617.66 652.08 L 1195.83 941.607 C 1125.38 988.822 1050.69 1045.31 1017.89 1127.3 C 1136.27 1387.79 868.144 1684.8 608.083 1691.16 C 558.935 1692.36 510.359 1686.62 467.678 1660.29 C 422.844 1639.57 380.769 1593.22 358.973 1549.15 C 179.592 1498.96 305.311 1295.7 387.997 1212.17 C 482.998 1116.21 612.59 1052.33 742.929 1020.54 C 790.168 1008.3 834.071 1010.85 877.98 986.997 C 934.964 956.041 960.937 904.519 1008.08 863.067 C 1033.21 840.967 1059.02 819.706 1084.4 797.867 L 1495.32 449.576 C 1539.46 411.464 1584.17 359.614 1642.78 352.377 z M 813.42 1313.74 C 769.299 1227.91 706.011 1340.79 689.366 1258.21 C 675.147 1204.1 595.887 1191.52 571.71 1245.79 C 567.174 1255.98 567.546 1268.25 554.948 1273.71 C 522.384 1289.43 517.2 1250.36 528.923 1223.2 C 566.372 1136.45 694.751 1146.11 732.533 1234.15 C 783.187 1223.83 819.04 1241.65 849.59 1281.62 C 883.724 1250.3 930.018 1187.28 952.932 1147.15 C 1039.58 995.422 1052.76 980.646 1199.27 881.794 L 1630.64 585.859 C 1653.44 570.426 1677.43 556.213 1699.79 540.172 C 1763.91 494.168 1727.7 392.512 1650.75 398.455 C 1619.78 401.408 1603.72 419.503 1581.07 438.669 L 1116.47 832.903 C 1091.7 854.224 1066.5 875.52 1042.14 897.126 C 969.311 961.724 940.145 1034.56 830.728 1053.34 C 670.704 1073.07 507.296 1148.68 399.923 1270.69 C 316.768 1363.88 243.02 1530.9 449.051 1501.18 C 569.126 1483.86 654.552 1434.32 751.608 1365.04 C 770.417 1351.34 798.971 1331.15 813.42 1313.74 z M 414.979 1552.31 C 429.865 1572.41 448.032 1589.62 467.678 1605 C 675.694 1753.22 1042.06 1471.63 995.858 1210.7 C 994.793 1204.68 991.378 1182.86 987.688 1179.6 C 892.048 1343.34 703.681 1486.77 522.659 1535.1 C 483.079 1545.67 455.139 1548.46 414.979 1552.31 z" fill="rgb(1,1,1)" transform="translate(0,0)"></path>
<path d="M 574.064 1296.5 C 607.733 1292.87 642.675 1305.88 664.892 1331.61 C 702.169 1371.95 664.919 1413.48 629.834 1365.99 C 605.322 1332.8 549.395 1336.58 530.691 1373.83 C 515.908 1403.26 528.273 1428.17 479.817 1417.27 C 419.228 1406.27 425.36 1467.65 396.978 1466.46 C 343.826 1464.23 383.19 1362.78 479.817 1371.2 C 494.997 1327.58 527.743 1301.07 574.064 1296.5 z" fill="rgb(1,1,1)" transform="translate(0,0)"></path>
<path d="M 872.62 500.392 C 928.299 489.503 939.226 517.97 933.744 566.994 C 926.832 628.801 881.796 663.469 824.086 670.927 C 795.073 671.197 761.929 673.795 759.45 636.931 C 754.571 564.402 799.093 506.832 872.62 500.392 z M 809.081 624.609 C 852.628 622.573 888.337 597.077 887.058 550.278 C 887.004 548.316 887.09 548.409 886.111 547.567 C 841.514 549.911 807.36 574.826 807.239 622.527 C 808.495 624.431 807.758 623.869 809.081 624.609 z" fill="rgb(1,1,1)" transform="translate(0,0)"></path>
<path d="M 425.153 759.569 C 490.841 752.963 550.214 801.619 556.532 867.231 C 560.089 904.174 557.421 925.505 517.251 928.346 C 440.939 931.756 383.14 881.986 384 804.108 C 384.394 768.513 390.943 762.587 425.153 759.569 z M 509.704 881.795 C 506.707 833.161 479.132 805.586 429.842 805.88 C 434.65 851.927 460.678 883.897 509.704 881.795 z" fill="rgb(1,1,1)" transform="translate(0,0)"></path>
<path d="M 723.804 711.11 C 730.384 712.486 734.298 713.658 739.581 717.096 C 810.475 763.227 825.061 851.312 753.875 905.426 C 743.518 913.298 742.254 918.785 727.616 922.065 C 699.133 918.868 663.481 876.447 655.826 851.309 C 639.973 799.249 671.528 726.961 723.804 711.11 z M 727.616 866.934 C 755.148 836.286 766.072 786.382 723.804 764.619 C 694.457 798.372 685.235 828.988 720.895 865.211 C 722.839 867.186 723.612 867.492 726.151 867.885 L 727.616 866.934 z" fill="rgb(1,1,1)" transform="translate(0,0)"></path>
</svg>