<svg xmlns="http://www.w3.org/2000/svg" height="512" preserveAspectRatio="none" style="display: block;" version="1.1" viewBox="0 0 2048 2048" width="512">
<path d="M 854.054 267 C 911.128 262.354 979.112 284.226 1021.17 323.218 C 1094.08 390.82 1088.19 378.067 1172.9 336.229 C 1315.88 265.616 1490.34 380.969 1495.08 543.211 C 1496.44 589.958 1471.03 631.34 1498.67 672.993 C 1518.58 702.984 1545.36 708.79 1575.49 724.371 C 1683.55 780.265 1715.4 902.532 1676.38 1013.02 C 1763.34 1010.38 1778.17 1060.68 1778.07 1131.19 L 1777.97 1196.05 C 1777.97 1224.75 1778.81 1253.83 1778.58 1282.42 C 1777.28 1441.71 1656.72 1579.86 1505.69 1620.38 C 1492.99 1623.78 1480.24 1625.17 1467.69 1629.7 L 1465.99 1630.32 L 1466.03 1635.05 C 1466.52 1751.92 1392.76 1774.04 1292.85 1774.05 L 1201.84 1774 L 698.025 1774.16 C 612.848 1774.29 582.869 1702.88 585.032 1630.32 C 417.081 1608.64 287.322 1460.32 271.508 1293.96 C 265.945 1235.44 269.516 1153.11 270.047 1092.63 C 270.558 1034.5 319.789 1010.64 372.115 1013.02 C 374.037 936.928 417.238 921.879 420.841 878.517 C 424.177 838.374 394.636 822.86 376.83 793.373 C 294.89 651.028 388.757 464.958 555.892 449.491 C 574.267 447.791 594.313 450.867 612.323 448.271 C 689.102 437.205 660.554 296.503 854.054 267 z M 1608.58 1501.69 C 1747.07 1382.74 1718.6 1258.69 1716.85 1095.78 C 1716.51 1064.14 1648.89 1071.98 1630.62 1071.98 L 360.453 1072 C 347.639 1073.1 329.023 1076.8 329.371 1093.92 C 330.811 1164.6 324.184 1240.52 333.183 1310.44 C 350.133 1442.14 466.544 1553.04 596.532 1571.99 C 651.382 1579.99 712.586 1577.03 768.281 1577.03 L 1289.67 1576.98 C 1396.44 1576.97 1524.82 1583.3 1608.58 1501.69 z M 434.029 1013.02 L 1201.84 1013.02 L 1608.58 1013.02 C 1654.84 920.695 1633.39 819.374 1537.94 771.209 C 1525.7 765.031 1513.08 760.775 1501.26 754.622 C 1443.65 724.645 1416.01 661.788 1427.1 598.693 C 1429.33 585.947 1432.5 573.232 1433.69 560.353 C 1444.97 436.214 1324.52 346.389 1209.07 385.427 C 1151.23 404.986 1122.96 454.733 1039.13 415.811 C 969.081 383.286 983.887 321.367 854.054 328.006 C 764.661 344.061 752.502 374.105 715.457 442.116 C 677.737 510.2 624.298 504.248 562.844 509.512 C 434.42 520.513 359.748 670.223 436.917 774.072 C 465.432 809.533 483.819 831.689 481.141 880.954 C 477.438 949.073 432.48 958.223 434.029 1013.02 z M 1386.48 1695.97 C 1400.59 1679.12 1405.73 1657.93 1405.09 1636.17 L 643.04 1636.17 C 641.396 1678.43 654.897 1715.66 703.706 1715.32 L 1335.63 1715.17 C 1357.29 1715.27 1370.16 1712.02 1385.75 1696.7 L 1386.48 1695.97 z" fill="rgb(1,1,1)" transform="translate(0,0)"></path>
<path d="M 881.753 743.596 C 894.326 742.402 906.57 748.064 913.804 758.417 C 921.038 768.77 922.143 782.214 916.698 793.61 C 911.252 805.006 900.098 812.592 887.499 813.468 C 868.356 814.8 851.7 800.493 850.127 781.369 C 848.554 762.244 862.65 745.409 881.753 743.596 z" fill="rgb(1,1,1)" transform="translate(0,0)"></path>
<path d="M 1379.5 851.781 C 1398.63 850.055 1415.59 864.067 1417.49 883.183 C 1419.4 902.299 1405.55 919.382 1386.45 921.468 C 1367.1 923.582 1349.73 909.505 1347.8 890.132 C 1345.87 870.759 1360.11 853.53 1379.5 851.781 z" fill="rgb(1,1,1)" transform="translate(0,0)"></path>
<path d="M 1032.5 535.476 C 1044.65 532.009 1057.72 535.364 1066.69 544.253 C 1075.66 553.142 1079.13 566.18 1075.77 578.354 C 1072.42 590.528 1062.75 599.943 1050.49 602.978 C 1032 607.558 1013.25 596.474 1008.34 578.064 C 1003.43 559.654 1014.18 540.708 1032.5 535.476 z" fill="rgb(1,1,1)" transform="translate(0,0)"></path>
<path d="M 1289.7 467.061 C 1308.72 465.37 1325.54 479.33 1327.39 498.334 C 1329.24 517.337 1315.41 534.274 1296.42 536.274 C 1277.22 538.297 1260.04 524.279 1258.17 505.056 C 1256.31 485.833 1270.46 468.772 1289.7 467.061 z" fill="rgb(1,1,1)" transform="translate(0,0)"></path>
<path d="M 1189.27 687.847 C 1208 684.376 1226.02 696.65 1229.65 715.344 C 1233.27 734.039 1221.15 752.163 1202.49 755.948 C 1183.6 759.778 1165.21 747.48 1161.54 728.562 C 1157.87 709.644 1170.32 691.36 1189.27 687.847 z" fill="rgb(1,1,1)" transform="translate(0,0)"></path>
<path d="M 1079.54 860.634 C 1098.51 857.863 1116.12 871.043 1118.81 890.025 C 1121.5 909.008 1108.24 926.561 1089.25 929.171 C 1070.37 931.766 1052.94 918.608 1050.27 899.738 C 1047.6 880.868 1060.68 863.387 1079.54 860.634 z" fill="rgb(1,1,1)" transform="translate(0,0)"></path>
<path d="M 688.215 867.987 C 707.051 867.529 722.737 882.338 723.36 901.169 C 723.983 920 709.312 935.815 690.487 936.603 C 671.427 937.401 655.372 922.507 654.741 903.441 C 654.11 884.375 669.145 868.451 688.215 867.987 z" fill="rgb(1,1,1)" transform="translate(0,0)"></path>
<path d="M 607.478 644.932 C 626.262 642.408 643.527 655.615 646.006 674.406 C 648.485 693.197 635.236 710.429 616.439 712.863 C 597.707 715.289 580.545 702.094 578.074 683.368 C 575.604 664.641 588.757 647.448 607.478 644.932 z" fill="rgb(1,1,1)" transform="translate(0,0)"></path>
<path d="M 844.569 510.574 C 863.374 508.288 880.448 521.738 882.631 540.554 C 884.813 559.371 871.271 576.372 852.442 578.451 C 833.759 580.515 816.918 567.099 814.752 548.428 C 812.587 529.756 825.91 512.842 844.569 510.574 z" fill="rgb(1,1,1)" transform="translate(0,0)"></path>
</svg>