<svg xmlns="http://www.w3.org/2000/svg" height="512" preserveAspectRatio="none" style="display: block;" version="1.1" viewBox="0 0 2048 2048" width="512">
<path d="M 1107.84 267.212 C 1117.74 266.235 1130.57 274.192 1131.88 284.943 C 1134.97 310.393 1012.47 397.714 1044.83 541.367 C 1046.83 550.233 1049.71 559.286 1051.13 568.243 L 1051.28 569.236 C 1061.91 571.196 1064.75 572.167 1074.44 576.346 C 1126.26 433.171 1258.47 355.29 1409.82 383.83 C 1437 388.954 1490.63 406.144 1507 430.323 C 1507.72 523.341 1465.35 584.168 1401.47 645.774 C 1432.15 684.818 1443.43 724.304 1443.94 773.502 C 1580.64 821.759 1590.81 1041.57 1435.32 1093.92 C 1488.49 1190.99 1449.49 1323.48 1338.51 1352.04 C 1339.02 1356.62 1339.5 1361.77 1340.35 1366.23 C 1359.8 1469.03 1290.28 1546.57 1195 1569.36 C 1226.49 1666.58 1127.85 1771.74 1027.04 1772.11 C 931.904 1772.91 854.067 1700.89 849.466 1604.67 C 848.864 1592.1 850.736 1579.02 851.014 1566.33 L 849.107 1565.92 C 759.933 1545.94 699.911 1447.01 720.472 1358.51 C 604.436 1318.24 536.949 1207.34 600.524 1090.69 C 466.81 1026.96 469.362 829.219 607.027 773.502 L 606.854 771.9 C 602.095 723.422 622.563 682.088 651.917 645.774 C 591.437 604.431 540.024 503.915 543.138 430.323 C 547.159 422.963 552.134 417.127 559.623 413.077 C 657.984 360.199 785.63 365.166 874.805 435.094 C 925.352 474.731 948.404 517.682 970.848 576.346 C 984.179 571.391 989.057 570.567 1003.28 569.236 C 986.893 497.034 993.379 436.775 1024.34 371.72 C 1038.75 341.45 1073.62 275.306 1107.84 267.212 z M 1168.54 1070.02 C 1239.23 1061.3 1289.72 997.301 1281.76 926.526 C 1273.8 855.751 1210.35 804.571 1139.5 811.768 C 1092.98 816.494 1052.58 845.848 1033.72 888.635 C 1014.86 931.422 1020.44 981.043 1048.34 1018.57 C 1076.23 1056.1 1122.14 1075.75 1168.54 1070.02 z M 919.633 1113.33 C 854.72 1190.77 914.87 1322.5 1020.66 1321.02 C 1130.21 1320.14 1184.11 1203.8 1124.56 1113.33 C 1087.84 1104.23 1050.67 1095.72 1026.59 1062.67 C 1025.56 1061.26 1026.08 1061.75 1025.01 1060.96 C 976.662 1098.35 972.695 1096.95 919.633 1113.33 z M 897.002 1069.79 C 965.947 1059.86 951.909 1048.61 996.485 1025.06 L 997.224 1024.66 C 976.668 967.437 964.289 927.13 995.008 866.072 C 969.781 825.537 922.896 810.454 877.231 811.016 C 858.441 816.021 844.917 819.198 827.489 828.983 C 718.632 890.099 747.69 1055.97 897.002 1069.79 z M 666.994 1060.96 C 697.122 1061.23 723.744 1054.94 746.982 1034.78 C 700.613 981.062 716.181 892.381 750.986 836.333 C 725.505 817.058 695.092 800.763 661.75 806.024 C 504.969 825.946 511.009 1050 666.994 1060.96 z M 1299.51 780.965 C 1332.39 763.045 1359.24 755.683 1396.16 760.983 C 1394.46 682.526 1328.87 617.323 1249.75 628.014 C 1220.25 633.29 1201.57 643.14 1178.56 662.076 C 1194.93 703.803 1198.4 725.582 1193.02 771.128 C 1217.05 774.751 1247.4 790.372 1266.05 806.024 C 1276.99 795.535 1286.05 788.271 1299.51 780.965 z M 897.002 1569.36 C 889.367 1656.72 928.964 1720.96 1020.66 1727 C 1104.57 1727.38 1169.62 1651.92 1149.99 1569.36 C 1103.81 1563.07 1057.51 1540.98 1030.53 1501.82 C 988.175 1542.66 958.67 1565.43 897.002 1569.36 z M 724.409 1310.28 C 778.328 1320.44 830.634 1302.58 860.455 1254.9 C 825.897 1188.64 867.081 1118.58 864.922 1111.59 C 833.577 1102.42 804.35 1094.7 778.673 1072.59 L 777.992 1071.99 C 737.397 1104.37 692.78 1106.6 643.887 1106.97 C 593.051 1184.48 634.78 1286.81 724.409 1310.28 z M 884.082 1302.81 C 841.084 1339.29 823.494 1350.81 765.845 1358.51 C 751.311 1450.28 798.598 1525.78 897.002 1523.98 C 983.486 1516.62 1027.6 1446.67 1014.38 1365.06 C 937.429 1364.8 895.929 1304.48 884.082 1302.81 z M 1060.74 1362.52 C 1066.79 1389.32 1063.12 1427.66 1054.97 1453.81 C 1090.12 1519.48 1128.19 1523.26 1193.02 1523.98 C 1272.33 1496.62 1306.82 1446.16 1294.85 1362.52 C 1236.82 1355.45 1196.93 1349.53 1155.3 1302.81 C 1131.3 1333.71 1098.31 1352.65 1060.74 1362.52 z M 1276.98 1064.86 C 1253.36 1088.31 1211.78 1110.77 1178.56 1113.33 C 1195.09 1164.67 1206.15 1207.06 1181.32 1260.78 C 1215.28 1298.21 1252.38 1323.7 1305.78 1313.17 C 1401.17 1298.08 1452.2 1181.51 1384.32 1103.56 C 1383.5 1102.62 1351.72 1100.9 1348.52 1098.81 C 1321.96 1092.93 1298.08 1082.23 1276.98 1064.86 z M 1025.01 824.209 L 1030.53 814.256 C 1058.37 784.541 1106.02 766.639 1146.33 765.852 C 1166.33 683.265 1088.71 598.896 1009.54 613.081 C 936.004 623.952 889.699 684.267 897.895 758.315 C 898.188 760.968 898.557 764.246 900.56 765.975 C 983.445 780.351 968.47 789.922 1025.01 824.209 z M 651.917 760.983 C 707.999 760.664 715.545 762.044 765.845 787.713 C 772.638 794.177 777.427 798.55 783.217 806.024 C 801.791 786.364 824.891 777.423 851.014 771.128 C 850.684 730.643 850.058 699.848 869.389 662.076 C 839.298 636.389 818.505 625.218 777.992 628.014 C 710.845 636.237 651.998 691.67 651.917 760.983 z M 1342.99 422.983 C 1232.22 432.794 1149.28 488.183 1116.29 595.536 C 1132.55 604.767 1137.38 610.028 1149.99 624.153 C 1200.93 586.85 1256.63 570.574 1318.73 591.44 C 1338.6 598.484 1350.15 605.954 1367.83 613.081 C 1403.09 595.034 1447.39 515.481 1456.32 479.399 C 1437.82 486.662 1390.4 516.881 1372.96 508.949 C 1354.37 500.496 1354.12 480.075 1370.89 469.125 C 1383.7 460.761 1419.54 445.403 1435.32 439.407 C 1404.59 426.965 1375.76 423.641 1342.99 422.983 z M 743.752 591.44 C 783.387 570.76 865.007 590.45 893.001 624.153 L 927.407 595.536 C 896.357 482.028 797.719 413.512 680.462 422.983 C 651.325 427.341 635.359 430.732 607.027 439.407 C 628.79 448.3 655.499 460.362 675.731 472.495 C 698.582 486.197 681.049 520.067 657.931 513.203 C 636.99 504.998 614.445 490.105 594.424 479.399 C 601.926 528.556 650.212 585.738 686.065 616.53 C 705.495 605.059 721.111 594.631 743.752 591.44 z M 1294.85 841.088 C 1332.15 880.145 1336.11 952.327 1317.81 1001.43 C 1315.23 1008.35 1307.78 1024.2 1306.82 1030.36 C 1333.42 1053.66 1371.49 1060.44 1405.66 1056.4 C 1571.58 1016.05 1504.81 781.495 1367.83 806.024 C 1338.85 806.335 1315.27 821.875 1294.85 841.088 z" fill="rgb(1,1,1)" transform="translate(0,0)"></path>
</svg>