<svg xmlns="http://www.w3.org/2000/svg" height="512" preserveAspectRatio="none" style="display: block;" version="1.1" viewBox="0 0 2048 2048" width="512">
<path d="M 1014.95 451.35 C 1087.04 446.168 1133.92 487.443 1181.05 534.878 C 1223.5 577.598 1267.16 616.607 1300.62 667.286 C 1303.97 672.363 1484.1 680.148 1520.59 857.014 C 1523.98 873.472 1525.27 888.571 1526.83 904.563 C 1553.34 929.44 1574.79 958.824 1598.08 986.426 C 1668.09 1069.38 1782.29 1250.72 1781.82 1353.23 C 1781.86 1469.53 1694.83 1556.87 1587.7 1586.92 C 1579.83 1589.06 1542.98 1589.58 1533.03 1589.67 L 1032.5 1589.8 L 499.06 1589.55 C 372.884 1588.32 263.929 1472.17 265.836 1345.47 C 271.855 1250.63 340.686 1159.51 384.75 1079.67 C 410.492 1033.02 478.991 943.107 520.822 904.563 C 528.9 792.725 589.724 704.634 702.342 674.885 C 709.807 672.913 750.524 667.173 750.715 667.036 L 751.142 662.647 C 763.467 645.958 768.441 635.072 786.665 625.712 C 790.679 607.874 809.076 595.851 821.867 583.751 L 866.071 541.752 C 916.685 493.28 938.83 458.545 1014.95 451.35 z M 569.908 924.619 C 504.766 994.408 420.738 1091.97 381.557 1179.37 C 363.07 1217.3 345.102 1245.47 329.424 1286.95 C 326.096 1295.75 322.993 1308.35 319.357 1316.23 C 390.08 1370.45 403.649 1368.05 489.255 1368.03 L 1027.5 1367.99 L 1554.13 1368.02 C 1647.29 1368.04 1669.67 1374.08 1726.97 1304.14 C 1706.16 1254.69 1684.75 1201.12 1655.97 1155.9 C 1635.5 1123.74 1603.64 1065.6 1578.11 1037.84 C 1559.21 1014.01 1540.58 990.569 1520.46 967.704 C 1476.55 917.798 1483.46 944.845 1475.31 876.778 C 1465.44 794.334 1391.37 729.943 1311.44 718.611 C 1297.3 716.606 1286.62 718.566 1273.02 712.516 C 1230.82 650.704 1178.62 595.476 1121.99 546.536 C 1095.06 523.262 1061.99 493.132 1020.78 499.349 C 964.451 505.742 967.203 516.426 931.495 547.925 C 903.763 572.388 788.848 671.706 787.465 705.779 C 782.711 710.774 704.803 723.063 679.48 733.553 C 674.313 735.693 670.03 741.622 667.028 742.878 C 593.781 773.514 570.85 852.846 569.908 924.619 z M 1694.79 1461.2 C 1712.55 1439.73 1725.88 1401.52 1733.72 1374.58 C 1676.11 1419.84 1606.76 1415.56 1537.85 1415.54 L 482.655 1415.55 C 416.991 1415.62 390.003 1417.78 329.659 1385.34 C 324.519 1382.57 320.942 1377.61 314.93 1374.58 C 348.615 1514.18 440.44 1542.24 563.711 1542.25 L 1492.06 1542.25 C 1580.39 1542.28 1641.52 1536.65 1694.79 1461.2 z" fill="rgb(1,1,1)" transform="translate(0,0)"></path>
<path d="M 790.69 1109 C 811.648 1109.26 823.701 1107.15 841.498 1118.63 C 843.967 1130.65 842.941 1135.19 841.498 1147.47 C 837.188 1151.33 832.769 1154.53 828.154 1158 C 801.105 1158.63 757.188 1152.46 745.916 1186 C 744.651 1187.87 739.367 1190.27 738.558 1192.16 C 730.479 1211.02 719.69 1244.27 705.135 1259.2 C 640.875 1325.11 523.301 1295.33 512.171 1199.24 C 510.466 1172.23 515.55 1127.79 541.556 1113.12 C 580.13 1111.49 577.406 1133.2 564.658 1160.92 C 538.947 1216.82 596.695 1273.8 668.268 1227.65 C 695.027 1165.29 714.367 1116.8 790.69 1109 z" fill="rgb(1,1,1)" transform="translate(0,0)"></path>
<path d="M 1230.62 1109 C 1270.27 1101.76 1333.14 1128.49 1347.99 1167.03 C 1358.3 1193.79 1358.91 1224.65 1390.04 1237.22 C 1434.97 1256.32 1436.24 1238.28 1468.32 1227.65 C 1475.47 1211.62 1483.12 1187.19 1488.42 1176.12 C 1495.02 1162.32 1518.46 1157.97 1527.99 1170.71 C 1538.81 1185.17 1528.85 1211.17 1526.83 1227.65 C 1497.63 1259.75 1492.52 1284.39 1437.48 1291.96 C 1385.98 1299.04 1339.54 1273.58 1316.35 1227.66 C 1305.34 1205.86 1314.26 1190.41 1287 1170.24 C 1256.77 1147.87 1233.04 1168.25 1206.16 1147.47 L 1202.48 1133.42 C 1206.64 1116.14 1213.38 1110.71 1230.62 1109 z" fill="rgb(1,1,1)" transform="translate(0,0)"></path>
<path d="M 936.789 1212.28 C 956.871 1209.65 986.974 1263.64 1065.32 1236.18 C 1077.53 1231.89 1134.8 1187.2 1134.74 1238.24 C 1134.73 1248.69 1123.72 1257.52 1116.57 1263.8 C 1042.04 1316.26 882.261 1281.56 922.326 1217.69 C 928.284 1214.26 930.034 1213.4 936.789 1212.28 z" fill="rgb(1,1,1)" transform="translate(0,0)"></path>
<path d="M 959.805 628.355 C 970.056 627.313 977.63 628.819 987.301 631.706 C 989.459 641.131 992.503 658.75 986.797 667.241 C 972.803 669.75 968.773 686.29 950.224 694.574 C 943.454 695.716 935.15 695.321 930.205 690.881 C 902.86 666.335 946.853 629.696 959.805 628.355 z" fill="rgb(1,1,1)" transform="translate(0,0)"></path>
<path d="M 702.668 933.03 C 720.789 932.919 731.724 948.788 747.642 959.014 C 749.804 971.104 749.32 976.364 747.642 988.534 C 741.272 992.064 735.836 995.358 728.923 997.705 C 702.098 1004.3 656.584 949.571 702.668 933.03 z" fill="rgb(1,1,1)" transform="translate(0,0)"></path>
<path d="M 1052.11 933.03 L 1065.54 933.03 C 1083.55 952.759 1101.27 956.867 1095.84 988.534 L 1095.84 988.489 C 1091.21 990.878 1085.13 994.863 1080.54 997.705 C 1052.43 1004.67 1007.36 948.3 1052.11 933.03 z" fill="rgb(1,1,1)" transform="translate(0,0)"></path>
<path d="M 883.96 814.354 C 913.151 810.403 956.051 861.563 914.359 876.312 C 893.011 881.961 873.65 858.164 867.763 841.109 C 865.32 834.034 871.545 825.282 874.979 819.159 C 877.825 817.276 880.899 815.875 883.96 814.354 z" fill="rgb(1,1,1)" transform="translate(0,0)"></path>
<path d="M 1291.24 876.312 C 1295.38 875.402 1301.35 876.071 1305.75 876.312 C 1321.78 892.91 1361.58 928.203 1313.17 938.776 C 1296.75 940.082 1273.54 913.68 1269.45 899.086 C 1272.99 884.333 1276.29 879.531 1291.24 876.312 z" fill="rgb(1,1,1)" transform="translate(0,0)"></path>
<path d="M 1140.15 694.574 C 1154.06 692.44 1159.62 705.836 1165.58 715.867 C 1160.99 734.921 1147.81 749.933 1129.75 757.334 C 1085.06 762.974 1102.66 699.351 1140.15 694.574 z" fill="rgb(1,1,1)" transform="translate(0,0)"></path>
</svg>