<svg xmlns="http://www.w3.org/2000/svg" height="512" preserveAspectRatio="none" style="display: block;" version="1.1" viewBox="0 0 2048 2048" width="512">
<path d="M 1002 419.983 C 1069.11 415.247 1147.15 435.043 1190.89 488.983 C 1206 507.619 1206.08 524.241 1229.12 537.142 C 1264.46 556.926 1286.83 539.498 1320.58 527.641 C 1423.1 497.791 1531.47 560.48 1563.83 659.755 C 1589.98 736.995 1564.19 715.312 1639.91 744.665 C 1723.23 775.266 1771.09 874.33 1750.12 959.355 C 1737.97 1007.12 1717.71 1013.92 1762.45 1059.05 C 1792.79 1089.66 1784.54 1143.91 1753.03 1170.51 C 1738.75 1182.56 1721.99 1194.03 1706.5 1205.1 L 1588.28 1289.39 C 1574.88 1299.06 1551.73 1314.09 1539.96 1324.56 L 1538.68 1325.71 C 1490.24 1535.85 1291.99 1672.6 1082.07 1610.53 C 1067.91 1620.15 1059.01 1624.16 1042.42 1626.92 C 1011.08 1633.98 993.842 1624.89 966.958 1610.53 C 946.658 1614.25 926.701 1620.4 906.448 1623.14 C 728.211 1647.32 569.909 1525.79 520.755 1357.57 C 517.88 1347.73 514.963 1336.46 511.265 1326.99 L 510.758 1325.71 C 483.93 1293.94 334.887 1197.32 295.692 1169.64 C 251.064 1138.14 263.605 1081.18 296.424 1044.82 C 326.556 1007.15 294.913 984.446 289.995 945.644 C 279.711 864.506 317.557 786.657 391.723 749.992 C 472.554 710.031 452.716 751.67 482.451 657.337 C 514.405 555.962 629.588 501.455 729.879 529.577 C 803.599 550.247 807.044 566.375 856.705 490.61 C 890.567 444.323 946.959 426.842 1002 419.983 z M 1010.67 464.001 C 942.353 466.747 905.617 490.905 873.536 543.937 C 848.918 584.633 780.745 602.795 740.762 578.758 C 654.581 538.342 543.104 589.147 519.996 682.413 C 505.007 765.512 476.292 758.505 411.541 789.079 C 341.249 822.269 309.915 913.463 348.014 981.769 C 357.984 999.644 349.541 1046.27 337.891 1062.27 C 293.672 1125.94 305.115 1121.79 363.916 1164.26 L 543.811 1292.24 C 582.4 1320.22 630.636 1358.38 674.979 1374.82 C 745.863 1401.1 806.886 1384.99 874.661 1431.2 C 915.141 1458.8 940.25 1485.55 963.211 1529.94 C 981.549 1565.4 983.04 1584.44 1035.42 1582.5 C 1074.41 1576.24 1074.11 1545.04 1090.87 1516.87 C 1149.72 1417.98 1215.84 1405.65 1315.5 1389.64 C 1410.03 1374.45 1526.07 1278.35 1605.37 1221.58 C 1631.06 1203.19 1718 1147.05 1731.95 1127.16 C 1756.86 1091.66 1702.25 1076.3 1694.04 1029.57 C 1687.31 991.173 1703.24 977.742 1709.3 945.782 C 1720.12 888.777 1693.75 824.309 1644.36 793.413 C 1598.66 764.827 1547.82 778.848 1530.4 704.492 C 1508.32 610.21 1437.4 544.712 1335.19 568.423 C 1288.13 579.339 1267.49 611.476 1207.49 574.771 C 1178.67 557.144 1173.63 539.111 1154.35 514.887 C 1122.63 475.034 1059.55 458.596 1010.67 464.001 z M 1114.71 1574.59 L 1125.06 1576.53 C 1262.84 1605.71 1404.78 1525.3 1465.28 1400.66 C 1468.39 1394.23 1482.48 1370.09 1479.67 1364.12 C 1429.86 1393.78 1380.66 1424.72 1321.85 1432.16 C 1230.62 1443.71 1141.91 1471.64 1114.71 1574.59 z M 926.009 1574.59 C 939.68 1569.41 920.457 1539.24 915.08 1531.02 C 871.163 1463.93 808.131 1438.18 730.896 1432.69 C 654.782 1427.28 624.664 1392.01 567.861 1364.12 C 615.712 1502.24 778.95 1620.69 926.009 1574.59 z" fill="rgb(1,1,1)" transform="translate(0,0)"></path>
<path d="M 1510.7 794.024 C 1520.75 793.612 1529.29 797.213 1534.07 806.548 C 1545.3 828.898 1518.37 836.328 1505.04 846.099 C 1431 899.688 1381.01 988.191 1347.76 1071 C 1340.26 1089.65 1341.78 1103.8 1322.61 1113.04 C 1230.83 1114.69 1423.13 818.111 1510.7 794.024 z" fill="rgb(1,1,1)" transform="translate(0,0)"></path>
<path d="M 813.431 641.138 C 823.665 640.573 832.517 642.518 838.397 652.101 C 887.016 731.326 938.176 907.789 926.009 1003.25 C 921.434 1008.04 918.609 1010.61 912.546 1013.23 C 887.816 1020.46 883.541 999.883 882.731 980.722 C 878.327 876.253 856.551 767.315 803.893 675.908 C 793.957 658.661 795.596 649.098 813.431 641.138 z" fill="rgb(1,1,1)" transform="translate(0,0)"></path>
<path d="M 1223.54 641.138 C 1255.07 640.101 1257.05 657.332 1242.72 682.393 C 1195.44 765.08 1173.93 864.4 1165.83 958.514 C 1164.09 978.754 1167.53 1003.25 1148.24 1013.23 C 1076.73 1026.8 1163.37 750.764 1174.55 723.779 C 1183.18 702.952 1202.73 650.334 1223.54 641.138 z" fill="rgb(1,1,1)" transform="translate(0,0)"></path>
<path d="M 530.237 790.043 C 547.593 789.048 565.193 807.55 578.126 818.695 C 658.485 888 725.669 982.318 753.227 1085.46 C 756.351 1097.15 746.65 1105.87 736.972 1109.78 C 713.57 1111.33 711.519 1097.18 705.932 1078.96 C 676.862 984.144 611.757 904.036 537.434 840.206 C 521.183 826.249 497.083 804.19 530.237 790.043 z" fill="rgb(1,1,1)" transform="translate(0,0)"></path>
<path d="M 1606.78 1067.25 C 1622.35 1069.48 1625.73 1075.82 1629.51 1090.15 C 1627.23 1099.26 1623.2 1107.24 1613.4 1110.54 C 1539.96 1135.21 1482.82 1186.61 1436.67 1247.34 C 1434.34 1250.42 1427.46 1252.25 1423.96 1253.21 C 1368.59 1245.56 1428.42 1187.08 1444.26 1169.94 C 1485.04 1129.67 1551.55 1077.3 1606.78 1067.25 z" fill="rgb(1,1,1)" transform="translate(0,0)"></path>
<path d="M 431.228 1071.05 C 485.022 1067.37 636.21 1184.2 646.542 1229.33 C 644.064 1240.59 641.163 1244.86 630.787 1249.76 C 606.991 1252.09 598.711 1229.41 583.368 1213.95 C 546.099 1176.39 504.403 1143.19 455.53 1122.04 C 444.468 1117.25 427.501 1112.22 419.285 1104.22 C 413.779 1088.62 415.379 1078.32 431.228 1071.05 z" fill="rgb(1,1,1)" transform="translate(0,0)"></path>
</svg>