<svg xmlns="http://www.w3.org/2000/svg" height="512" preserveAspectRatio="none" style="display: block;" version="1.1" viewBox="0 0 2048 2048" width="512">
<path d="M 909.168 266.009 C 923.724 265.447 941.566 265.946 956.372 265.961 L 1106.55 265.918 C 1200.32 265.824 1211.32 300.892 1212.85 383.45 C 1213.64 426.312 1214.37 438.612 1175.96 464.982 C 1175.98 508.844 1174.95 556.577 1175.96 600.083 C 1297.06 658.561 1372.01 766.709 1373.38 904.113 L 1373.44 1605.43 C 1373.48 1659.37 1383.58 1702.78 1344.58 1744.5 C 1309.73 1781.78 1262.74 1775 1215.19 1775 L 1133 1774.96 L 812.974 1775.04 C 748.147 1775.17 675.313 1760.69 674.011 1676.95 C 673.743 1659.72 673.715 1642.79 673.725 1625.63 L 673.747 1012.24 C 673.781 935.41 666.83 865.493 694.236 791.978 C 727.172 703.627 787.305 640.307 872.009 600.083 C 872.027 554.815 870.927 505.413 872.009 460.555 C 831.959 446.357 833.424 413.735 833.952 378.668 C 834.829 320.414 838.38 274.294 909.168 266.009 z M 717 918.848 C 716.081 935.148 716.917 952.969 716.975 969.473 L 716.97 1635.08 C 716.775 1731.34 734.082 1732.56 833.311 1732.51 L 1226.25 1732.49 C 1295.12 1732.69 1330.14 1732.43 1330.13 1655.4 L 1330.06 923.764 C 1226.56 976.638 1105 948.075 1002.01 911.178 C 961.029 896.499 891.519 892.282 847.795 894.107 C 799.964 898.142 762.307 902.997 717 918.848 z M 717 871.853 C 816.202 848.088 906.774 839.491 1007.94 867.626 C 1046.43 878.332 1079.38 892.103 1119.79 902.212 C 1187 914.221 1273.44 915.795 1330.06 871.853 C 1312.64 780.749 1285.09 723.041 1204.81 666.676 C 1133.61 616.681 1132.92 646.371 1132.93 552.253 L 1133 464.982 C 1113.95 463.809 1083.19 464.983 1062.82 464.99 L 915.998 464.982 L 916.066 555.344 C 916.192 654.71 907.409 620.695 842.444 667.275 C 758.161 727.705 742.067 781.444 717 871.853 z M 887.411 421.968 C 910.785 420.347 942.665 421.944 967.117 421.96 L 1129.5 421.968 C 1175.03 422.499 1168.72 426.363 1168.99 379.534 C 1169.53 289.935 1131.52 309.479 1055 309.46 L 915.998 309.51 C 879.712 312.728 875.93 334.982 876.988 365.792 C 877.569 382.711 871.534 409.733 886.523 421.292 L 887.411 421.968 z" fill="rgb(1,1,1)" transform="translate(0,0)"></path>
<path d="M 1025.53 1013.29 C 1070.87 1018.58 1084.24 1079.4 1085.16 1116.73 C 1107.27 1086.18 1174.25 1058.65 1199.92 1094.71 C 1227.32 1133.21 1188.24 1188 1158.7 1210.29 C 1230.72 1190.77 1314.72 1253.28 1249.43 1303.81 C 1216.31 1329.44 1185.3 1328.65 1145.93 1324.44 C 1201.24 1346.56 1237.92 1451.92 1171.65 1460.47 C 1134.86 1465.22 1113.41 1452.36 1085.16 1432.32 C 1077.17 1464.66 1071.11 1500.11 1039.31 1518.64 C 992.273 1537.56 965.591 1468.62 964.36 1432.32 C 935.783 1454.89 866.718 1481.39 847.441 1442.9 C 827.42 1402.92 864.517 1344.39 900.686 1324.44 C 834.006 1340.24 736.257 1281.11 798.122 1229.28 C 824.167 1207.46 854.77 1204.44 887.411 1207.01 C 861.977 1191.52 842.469 1149.79 844.152 1120.97 C 848.43 1047.67 934.603 1081.36 964.36 1113.02 C 967.226 1074.09 980.948 1020.71 1025.53 1013.29 z M 1029.5 1351.75 C 1074.4 1348.84 1108.57 1310.31 1106.09 1265.39 C 1103.61 1220.47 1065.41 1185.93 1020.47 1187.98 C 974.911 1190.06 939.797 1228.9 942.31 1274.43 C 944.822 1319.96 983.996 1354.7 1029.5 1351.75 z M 1022.25 1476.48 C 1026.1 1471.97 1027.84 1469.97 1030.98 1464.76 C 1043.12 1438.69 1043.17 1422.91 1042.02 1395 L 1007.01 1395 C 1001.63 1423.87 1003.9 1450.34 1021.2 1475.01 L 1022.25 1476.48 z M 952.038 1168.02 C 937.72 1145.09 916.206 1122.14 887.411 1121.05 C 883.561 1153.03 912.225 1170.59 932.224 1188.5 C 934.892 1185.12 938.894 1179.68 941.846 1176.86 C 945.269 1174.04 948.948 1171.18 952.038 1168.02 z M 1175.96 1250.4 C 1166.71 1251.57 1159.07 1253.22 1150 1255.15 L 1150 1282.9 C 1164.83 1283.46 1181.49 1284.3 1196.23 1282.9 C 1207.25 1280.06 1220.6 1272.06 1229.57 1265.11 C 1214.74 1251.36 1195.69 1248 1175.96 1250.4 z M 1150 1417.62 L 1169.05 1417.62 C 1156.08 1388.43 1147.14 1371.29 1119.79 1352.77 C 1111 1362.56 1108.16 1365.28 1096.98 1371.97 C 1113.44 1398.94 1120.25 1407.54 1150 1417.62 z M 1096.98 1168.02 C 1103.65 1173.11 1107.07 1176.23 1112.97 1182.33 L 1115.09 1184.29 C 1133.72 1182.74 1189.56 1120.86 1155.42 1121.05 C 1131.17 1128.54 1108.71 1144.99 1096.98 1168.02 z M 823.305 1265.11 C 837.644 1275.91 845.998 1280.4 863.76 1282.9 C 875.147 1283.57 886.662 1283.13 898.077 1282.9 C 898.025 1271.25 898.215 1266.49 900.686 1255.15 C 890.427 1252.37 871.07 1246.96 860.742 1250.4 C 844.04 1251.92 835.867 1252.88 823.305 1265.11 z M 932.224 1352.77 C 906.472 1371.85 891.816 1384.75 884.668 1417.62 L 900.686 1417.62 C 926.594 1409.35 941.053 1397.34 952.038 1371.97 C 941.725 1366.27 937.806 1363.76 932.224 1352.77 z M 1042.02 1144.53 C 1042.5 1119.49 1044.07 1077.85 1025.53 1057.71 C 1001.3 1097.02 1009.93 1103.68 1007.01 1144.53 C 1014.22 1144.49 1021.44 1144.42 1028.64 1144.53 C 1033.1 1144.55 1037.56 1144.58 1042.02 1144.53 z" fill="rgb(1,1,1)" transform="translate(0,0)"></path>
</svg>